<?xml version="1.0" encoding="UTF-8" standalone="no"?>
<!-- Created with Inkscape (http://www.inkscape.org/) -->

<svg
   version="1.1"
   id="svg1"
   width="335.97333"
   height="336"
   viewBox="0 0 335.97333 336"
   sodipodi:docname="RotaryMoE-R_CMYK-C.eps"
   xmlns:inkscape="http://www.inkscape.org/namespaces/inkscape"
   xmlns:sodipodi="http://sodipodi.sourceforge.net/DTD/sodipodi-0.dtd"
   xmlns="http://www.w3.org/2000/svg"
   xmlns:svg="http://www.w3.org/2000/svg">
  <defs
     id="defs1" />
  <sodipodi:namedview
     id="namedview1"
     pagecolor="#ffffff"
     bordercolor="#000000"
     borderopacity="0.25"
     inkscape:showpageshadow="2"
     inkscape:pageopacity="0.0"
     inkscape:pagecheckerboard="0"
     inkscape:deskcolor="#d1d1d1">
    <inkscape:page
       x="0"
       y="0"
       inkscape:label="1"
       id="page1"
       width="335.97333"
       height="336"
       margin="0"
       bleed="0" />
  </sodipodi:namedview>
  <g
     id="g1"
     inkscape:groupmode="layer"
     inkscape:label="1">
    <g
       id="group-R5">
      <path
         id="path2"
         d="m 789.16,2076.73 4.375,-7.44 16.035,-27.76 33.321,17.5 c 3.144,1.54 4.922,5.43 5.468,10.26 0.684,15.03 -10.214,35.41 -25.976,25.9 -12.305,-6.42 -19.824,-10.87 -33.223,-18.46 z m -34.844,-7.44 -8.781,15.78 c 23.117,14.66 48,27.38 71.926,40.2 28.223,15.56 68.008,-22.15 65.215,-55.98 -0.547,-5.95 -2.188,-11.39 -5.754,-16.86 l 57.707,-41.97 c -10.899,-5.09 -19.141,-9.44 -32.09,-15.07 l -50.488,36.91 -27.891,-14.9 29.668,-49.08 c -11.484,-7.32 -18.457,-11.87 -31.855,-19.69 z m 762.464,-1581.72 52.5,-149.988 c 10.25,3.559 21.19,6.656 31.58,11.18 l -51,149.297 c -13.97,-4.75 -20.37,-6.668 -33.08,-10.489 z m -210,-141.55 -12.35,30.32 -12.4,32.82 -10.8,-32.82 -10.66,-32.328 z m 20.78,30.32 34.32,-83.328 c -11.22,-0.473 -21.7,-1.602 -31.72,-2.774 l -10.63,26.934 -68.67,-1.91 -7.89,-28.16 c -10.98,0.949 -21.23,1.269 -32.13,1.269 l 29.63,87.969 21.09,66.75 1.05,2.129 35.01,1.562 1.77,-4.23 z m 172.4,1753.03 35.55,-11.45 c 9.7,-2.77 22.56,12.44 22.56,25.7 0,6.29 -2.19,11.9 -10.67,13.78 -13.12,5.06 -22.15,7.31 -36.46,10.94 l -7.29,-24.72 z m -21.74,-82.88 c -12.71,3.69 -22.14,5.26 -36.09,9.22 l 25.74,87.91 18.83,62.66 c 27.21,-6.76 53.05,-15.59 78.89,-23.99 14.62,-4.49 22.42,-21.06 23.92,-38.67 0.96,-23.96 -10.93,-49.96 -35.1,-55.4 l 9.4,-70.82 c -11.35,4.68 -19.69,8.2 -32.27,13.15 l -8.2,61.91 -30.35,9.29 z M 995.594,451.738 c -0.946,4.461 -2.723,8.012 -8.192,10.5 l -39.797,14.66 -9.019,-25.16 -3.148,-9.187 -0.262,-0.582 36.23,-13.559 c 9.981,-4.422 19.539,4.43 23.008,14.141 1.18,2.668 2.176,5.98 1.18,9.187 z m 29.816,0 c 0,-3.207 0,-6.519 0,-8.648 -2.47,-21.149 -16.83,-42.649 -40.058,-45.352 l 5.371,-73.898 c -10.782,2.469 -23.008,6.051 -34.532,10.941 L 955,404.301 923.73,417.66 898.398,356.32 c -10.253,3.371 -20.476,6.66 -30.488,11.578 l 32.129,74.653 3.828,9.187 26.113,61.614 71.09,-27.454 c 15.82,-5.636 23.11,-19.718 24.34,-34.16 z m 453.77,22.434 c -46.21,-10.121 -81.76,-18.524 -127.56,-25.641 l 4.24,-26.59 c 16.95,2.668 32.47,4.688 50.31,6.93 l 23.11,-128.133 34.01,6.422 -27.59,127.77 c 17.5,4.332 33.64,8.75 51,12.808 z m 173.5,1499.038 34.31,66.09 92.56,43.04 c -9.71,6.97 -20.23,11.87 -30.04,18.29 l -63.75,-29.06 -11.76,69.26 c -13.36,6.31 -21.32,9.08 -35.23,14.69 l 18.56,-100.73 -34.32,-65.28 z m 347.27,-40.41 c -14.63,17.88 -38.83,15.22 -45.8,2.74 l -107.84,-108.29 c -15.76,-16.43 -14.26,-40.5 2.15,-52.18 162.7,-180.1 230.65,-404.29 177.33,-681.9 -1.23,-18.18 10.25,-32.81 24.47,-36.91 l 149.03,-43.21 c 19.82,-5.64 32.54,6.43 36.77,23.41 76.7,341.77 -28.3,677.77 -236.11,896.34 z m 172.4,-999.39 -149.16,50.93 c -7.79,2.898 -28.16,2.898 -38.83,-23.352 C 1863.91,672.109 1583.5,474.41 1258.78,474.41 c -325.108,0 -610.725,202.238 -725.979,491.09 -8.613,21.738 -29.531,21.738 -37.461,18.84 L 347.004,933.41 c -16.145,-5.808 -25.813,-20.101 -17.375,-40.711 145.75,-371.828 508.066,-634.34 929.151,-634.34 420.97,0 784.92,264.313 931.1,635.911 7.63,19.449 -1.53,33.332 -17.53,39.14 z m -1849.694,79.64 148.762,43.21 c 13.941,4.1 25.426,18.73 24.336,36.91 -53.418,277.13 14.488,501.8 176.914,681.9 16.402,11.68 18.18,35.75 2.461,52.18 L 566.98,1935.98 c -10.527,12.04 -29.636,12.04 -46.003,-4.68 -207.344,-218.21 -312.032,-553.07 -235.235,-895.41 4.238,-16.41 17.227,-28.48 36.914,-22.84 z m 1492.714,692.8 c 0.41,6.64 -3.69,15.01 -12.99,24.17 -119.11,125.98 -241.44,196.46 -409.24,236.38 -9.39,2.44 -20.33,4.65 -27.57,-1.77 -7.52,-6.02 -9.71,-17.64 -8.21,-35.03 l 27.66,-388.2 c 0.92,-14.69 7.52,-26.34 17.32,-32.26 10.8,-6.12 23.66,-4.99 37.05,1.47 l 349.59,168.71 c 11.22,5.44 23.93,11.39 26.39,23.32 0,0.75 0.41,1.7 0,3.21 z m 70.69,-693.86 c 10.36,-6.73 22.43,-14.9 33.36,-11.1 7.39,2.24 13.81,10.39 17.91,25.04 48.95,165.95 48.95,307.7 0,471.65 -3,10.3 -7.79,20.92 -16.4,24.79 -8.75,3.11 -19.69,-0.48 -35.41,-11.11 L 1564.9,1293.23 c -12.44,-8.34 -18.73,-19.73 -18.73,-31.49 0,-11.68 6.29,-23.06 18.73,-31.26 z M 1364.61,560.82 c 5.88,-4.648 15.59,-6.019 30.49,-2.3 166.79,40.031 289.16,110.718 408.38,235.808 7.11,8.242 14.87,16.711 12.54,26.121 -2.15,9.02 -9.81,17.192 -26.08,24.852 L 1440.21,1015 c -13.26,6.26 -26.11,6.26 -36.77,0.68 -10.3,-6.49 -16.55,-17.5 -17.5,-32.84 l -28.3,-387.09 c -0.28,-12.68 -1.78,-27.141 6.97,-34.93 z m -105.83,448.37 c 138.1,0 250.31,112.08 250.31,250.13 0,138.05 -112.21,250.27 -250.31,250.77 -138.04,0 -250.2,-112.72 -250.2,-250.77 0,-138.05 112.16,-250.13 250.2,-250.13 z M 708.758,813.988 c 0,-6.636 4.512,-14.898 12.988,-23.687 120.227,-126.473 242.004,-196.84 409.204,-236.071 10.66,-3.261 21.2,-4.871 28.58,0.95 7.56,5.64 9.71,17.261 8.48,35.55 0,0.579 -28.44,388.141 -28.44,388.141 -1.23,14.688 -6.81,25.899 -17.09,31.819 -10.39,6.11 -23.39,6.11 -37.32,-0.23 L 736.379,840.68 c -12.168,-5.668 -25.363,-12.059 -27.207,-23.489 0,-0.742 -0.414,-2.211 -0.414,-3.203 z m -5.059,885.672 c 1.504,-11.68 14.766,-17.63 26.391,-23.1 l 349.18,-169.61 c 13.87,-6.63 26.8,-6.63 37.32,-1.16 9.84,6.42 16.17,17.6 17.1,32.47 l 28.16,387.33 c 1.55,18.7 -1.1,29.67 -7.79,35.41 -7.38,6.36 -18.32,4.58 -28.85,2.64 -167.339,-40.23 -289.292,-110.96 -409.48,-236.33 -9.707,-10.97 -14.218,-20.19 -12.031,-27.65 z m -70.105,-191 c -11.379,7.38 -23.547,15.83 -33.496,11.41 -8.094,-2.46 -13.977,-10.93 -18.215,-24.7 -48.535,-166.56 -48.535,-307.77 0,-472.14 3.285,-10.69 6.972,-21.36 16.68,-24.058 8,-3.313 19.718,0 35.031,10.558 l 320.449,218.28 c 11.883,7.99 19.141,19.38 19.141,30.8 0,12.41 -7.258,23.31 -19.141,31.68 z m -7.004,484.84 103.5,-115.28 c 14.488,-15.56 30.398,-13.64 51.316,2.73 130.801,102.57 298.554,163.25 477.374,163.25 178.97,0 346.86,-60.43 478.93,-163.25 20.65,-15.24 36.1,-18.29 51.27,-2.73 l 103.54,115.28 c 11.73,12.76 11.73,30.32 -10.69,49.13 -173.65,135.17 -387.88,218.58 -623.45,218.58 -234.2,0 -451.544,-83.41 -622.052,-219.2 -22.316,-18.19 -21.289,-35.75 -9.738,-48.51 z m 1893.16,-735.1 c 0,-14.7 -0.71,-29.47 -2.32,-41.23 l -0.41,-3.18 -3.42,-1.74 c -53.59,-31.89 -122.77,-50.04 -192.22,-51.95 -1.64,-8.79 -9.16,-71.5 -10.46,-80.32 64.73,-18.66 127.49,-54.05 171.24,-99.269 l 1.77,-2.789 v -2.871 c -3.41,-24.692 -12.16,-57.813 -21.87,-79.301 l -1.09,-3.391 -3.19,-0.519 c -60.69,-17.461 -132.19,-16.809 -198.34,-0.442 -3.18,-8.199 -27.61,-66.468 -30.08,-74.949 57.97,-36.64 109.24,-87.027 138.09,-140.789 l 1.5,-3.012 -0.95,-3.136 c -9.03,-21.403 -25.98,-52.364 -41.16,-70.961 l -1.64,-2.801 h -3.82 c -61.94,-0.719 -131.15,17.672 -191.55,51.309 -5.47,-7.219 -45.8,-60.508 -51.27,-67.68 47.58,-49.02 83.65,-111.149 98.3,-172.438 l 0.96,-3.179 -1.81,-2.231 c -13.8,-18.761 -39.2,-43.609 -57.66,-58.519 l -2.19,-1.871 -4.55,0.89 c -59.57,15.891 -122.6,51.949 -171.54,99.289 -7.25,-5.468 -57.29,-44.539 -64.68,-50.07 32,-58.629 51.42,-126.059 51.42,-187.012 0,-1.769 0,-8.468 0,-8.468 l -3.7,-2.079 c -18.45,-14.871 -49.09,-32.609 -70.96,-41.562 l -2.19,-0.93 -3.65,1.199 c -53.64,31.243 -105.04,82.204 -140.18,140.614 -8.47,-3.731 -69.31,-29.762 -77.65,-33.422 8.34,-32.539 13.26,-66.59 14.22,-100.219 0,-33.973 -5.88,-67.9491 -14.22,-98.6405 l -0.41,-3.0508 -3.28,-1.7695 C 1604.42,47.4297 1570.1,38.9219 1546.17,34.75 l -3.72,-0.5117 -2.02,2.5625 c -46.21,43.9609 -81.62,106.4692 -100.22,171.7892 -8.2,-0.61 -71.23,-9.16 -80.11,-11.008 C 1359,129.09 1340.18,59.6406 1307.6,5.80859 l -1.78,-2.83984 -3.69,-0.48047 c -21.88,-3.316405 -56.97,-3.316405 -80.8,0 l -2.97,0.48047 -2.1,2.83984 C 1184.69,59.6406 1165.82,129.09 1164.32,197.582 c -9.44,0.918 -75.84,10.398 -85.05,11.008 -18.19,-64.91 -53.86,-127.0783 -98.848,-171.5509 l -2.414,-2.2891 -3.742,0.5508 c -24.598,3.6211 -57.012,13.1211 -78.739,22.1094 l -2.605,1.2695 -1.086,2.7695 c -9.16,30.5899 -13.914,64.9028 -13.914,98.9098 0,33.332 4.754,66.692 13.23,99.231 -8.476,3.66 -65.898,26.93 -74.238,30.648 C 781.406,230.852 730.09,179.23 675.945,149.121 l -2.871,-1.609 -3.418,0.918 c -22.422,10.011 -51.953,26.968 -71.093,41.289 l -2.325,2.332 c 0,0 0,5.531 0,6.449 0,61.699 18.801,129.609 50.996,189.031 -7.105,5.52 -60.703,46.239 -68.086,51.731 C 530.066,391.961 467.59,356.32 407.156,340.828 l -3.113,-0.957 -3.313,2.16 c -18.457,14.899 -42.214,38.891 -57.144,57.719 l -2.023,3.281 0.925,3.188 c 16.028,60.922 52.227,123.082 99.258,171.383 -5.398,7.308 -45.937,59.847 -51.68,67.738 -59.753,-33.5 -129.617,-52.828 -191.55,-51.27 h -3.282 l -2.187,2.129 c -14.492,19.172 -31.777,49.789 -41.152,71.5 l -1.368,3.242 1.368,2.879 c 31.21,54.61 82.168,105.032 140.41,139.93 -3.789,8.949 -28.575,67.641 -32.813,75.91 -66.172,-16.469 -138.086,-16.961 -198.6131,0 l -2.9101,0.918 -1.7774,2.742 c -8.2031,20.399 -17.1875,54.75 -20.8789,78.91 l -0.6445,3.801 2.1484,2.84 c 44.0625,44.879 105.9176,80.389 172.1286,99.999 -0.722,9.28 -10.429,76 -11.386,85.22 -69.141,0.93 -138.6332,18.77 -192.63712,50.9 l -2.73438,1.77 -0.27344,3.73 C 0.410156,1231.71 0,1246.36 0,1261.24 c 0,14.49 0.410156,28.71 1.91406,40.84 l 0.27344,3.73 2.73438,1.46 c 54.00392,31.86 123.49612,50.31 192.63712,51.34 1.406,9.13 9.609,74 10.664,82.75 -65.489,18.76 -127.9691,54.62 -172.3636,99.33 l -1.8164,2.19 0.625,3.48 c 2.832,24.93 12.2265,58.28 21.5234,78.96 l 0.9961,3.01 3.2422,0.92 c 59.7853,17.64 132.0703,17.13 198.5153,0.82 3.692,8.1 27.93,66.59 31.582,75.37 -58.652,35.49 -110.117,85.99 -140.742,140.51 l -1.582,3.45 1.582,3.28 c 9.629,21.88 26.895,51.52 40.528,70.11 l 2.187,2.8 h 3.73 c 62.715,0.89 131.895,-18.25 191.543,-51.34 5.575,6.7 46.317,61.73 51.817,69.05 -47.336,49.35 -83.156,111.15 -98.606,172.4 l -0.683,2.63 1.262,2.7 c 15.175,19.01 40.3,43.68 58.652,58.18 l 2.976,1.81 2.735,-0.54 c 61.664,-15.77 123.762,-52.44 172.16,-99.51 7.082,5.61 55.508,42.96 62.723,48.4 -33.36,58.35 -51.954,126.34 -51.954,186.77 0,2.35 0,9.08 0,9.08 l 3.04,2.16 c 18.152,14.19 48.914,31.83 70.859,40.74 l 2.285,1.48 3.66,-1.62 c 54.004,-30.51 104.778,-81.62 140.285,-140.1 8.477,3.22 71.504,30.57 80.106,34.01 -8.192,32.61 -13.348,66.38 -12.84,99.84 0,34.8 4.238,67.91 13.398,98.47 l 0.442,3.79 3.25,0.86 c 20.371,8.52 54.265,17.64 78.066,21.29 l 3.828,0.49 2.774,-2.4 c 44.932,-43.71 80.752,-106.29 99.662,-172.3 9.25,0.93 75.42,9.27 84.32,10.87 1.41,67.99 20,137.4 52.5,191.34 l 1.37,2.84 3.38,0.92 c 23.73,2.8 58.68,2.8 81.66,0 l 3.01,-0.92 1.91,-2.84 c 32.68,-53.94 51.54,-123.35 51.54,-190.73 9.98,-2.21 74.65,-10.55 83.85,-11.48 19.38,66.01 54.92,128.11 100.18,171.99 l 2.05,2.22 3.01,-0.92 c 24.6,-2.73 57.97,-11.85 79.4,-21.23 l 2.63,-1.01 1.09,-3.73 c 9.2,-30.29 13.67,-63.27 13.67,-97.52 -0.54,-33.8 -5.47,-67.85 -13.67,-100.52 8.2,-3.35 71.1,-29.67 79.85,-33.33 34.86,58.48 85.03,109.18 139.58,140.1 l 3.15,1.62 3.28,-1.48 c 21.61,-9.19 51.82,-26.55 70.42,-41.18 l 2.76,-1.72 c 0,0 0,-6.73 0,-8.47 0,-61.97 -19.17,-129.67 -51.57,-187.38 6.97,-5.44 58.93,-46.07 66.72,-52.06 48.91,47.55 111.15,83.92 172.4,98.99 l 2.74,1.5 2.73,-2.87 c 18.46,-13.7 43.34,-39.57 57.39,-58.14 l 2.63,-2.73 -1.12,-3.15 c -15.56,-61.27 -52.5,-123.45 -99.51,-172.12 5.47,-7.49 44.57,-59 50.59,-66.42 60.95,32.78 129.88,51.54 192.36,50.42 h 2.87 l 2.03,-2.76 c 15.2,-19.39 32.56,-49.47 41.04,-70.11 l 2.05,-3.97 -2.05,-3 c -31.03,-54.11 -82.03,-104.18 -140.55,-139.9 3.53,-8.88 27.35,-67.61 31.86,-75.82 65.62,16.52 137.81,16.9 197.53,0 l 3.58,-0.71 1.37,-3.45 c 8.34,-20.78 18.02,-54.53 21.19,-79.34 l 0.52,-3.04 -2.43,-2.43 c -43.89,-45.49 -106.37,-81.08 -172.06,-99.63 1.3,-9.06 9.5,-73.14 11,-82.28 69.18,-1.46 138.09,-19.96 191.68,-51.7 l 3.42,-2.03 0.41,-3.24 c 1.61,-11.7 2.32,-25.88 2.32,-40.98 z m -705.88,-594.572 65.63,-70.75 -110.2,32.512 c -9.16,-6.969 -15.32,-9.399 -23.38,-16.481 l 95.84,-128.847 c 8.2,6.347 16.68,14.109 24.33,20.648 l -58.2,77.512 111.26,-33.492 c 7.66,6.621 18.59,14.109 26.11,23.539 l -111.02,117.34 c -5.88,-6.43 -12.72,-14.868 -20.37,-21.981 z M 1737.71,475.34 c 0,9.492 -2.46,17.969 -6.97,26.172 -13.12,24.468 -44.29,32.367 -68.63,18.429 -17.09,-9.191 -25.84,-26.632 -25.84,-44.601 0.55,-8.199 2.5,-17.399 7.38,-25.16 1.37,-2.442 3.01,-4.961 5.47,-7.629 15.22,-18.219 42.11,-22.461 62.79,-10.422 5.71,2.801 10.22,6.492 13.91,10.422 7.56,9.187 11.89,21.5 11.89,32.789 z m 17.86,39.469 c 6.76,-11.821 10.04,-25.5 10.55,-39.469 0,-10.91 -2.29,-22.09 -6.8,-32.25 -7.39,-14.68 -18.32,-27.852 -33.5,-36.641 -37.08,-21.629 -85,-8.711 -107.46,29.403 -0.82,2.179 -1.78,4.589 -3.28,7.238 -4.54,10.16 -6.7,21.34 -7.66,32.25 0.96,28.058 14.63,53.961 39.76,68.519 37.62,21.332 86.2,8.59 108.39,-29.05 z m 165.77,210.863 18.73,-29.57 17.09,-29.801 23.1,29.801 6.02,7.418 z m -17.91,36.117 157.77,-51.809 c -3.72,-4.679 -6.67,-9.16 -9.98,-13.878 -2.73,-3.551 -6.02,-7.153 -8.2,-11.762 l -27.62,9.941 -43.07,-53.793 15.73,-24.636 c -6.43,-7.321 -13.68,-15.25 -21.88,-23.34 l -62.51,103.59 -23.08,38.179 z m 174.72,23.352 -115.9,63.808 -14.8,-26.699 139.04,-77.609 53.6,96.039 -23.93,12.781 z m -916.3,-334.961 -11.48,-96.461 -46.35,105.793 c -10.88,2.117 -17.63,4.918 -28.58,6.668 l -36.36,-156.008 c 11.2,-3.012 22,-4.211 33.63,-6.223 l 19.46,95.801 46.99,-106.738 c 10.66,-1.602 22.69,-4.961 35.14,-4.641 l 17.36,161.129 c -9.12,0.512 -19.96,-0.969 -29.81,0.68 z m -5.37,1749.64 13.99,-129.24 33.9,3.56 -13.27,128.28 51.32,3.17 -1.95,28.79 c -57.29,-3.28 -80.94,-5.6 -137.69,-14.08 l 3.83,-27.34 z m 157.27,-70.45 c 17.23,-0.82 33.22,-2.73 49.36,-5.03 l -8.48,33.06 -10.67,34.01 -16.03,-34.01 z m -26.25,-53.73 c -13.26,0.14 -19.41,0.14 -32.41,0.14 l 39.34,81.62 35.73,74.14 35.41,-3.66 18.59,-70.48 25.7,-94.75 c -11.89,2.22 -21.19,4 -32.4,4.65 l -9.16,29.7 c -23.38,3.63 -44.54,4.75 -66.17,5.71 z m -328.633,39.04 c 2.149,-28.1 27.031,-48.61 54.103,-46.29 26.66,2.74 46.62,24.07 46.62,50.9 0.96,1.33 0,2.87 0,4.64 -2.34,28.25 -26.67,48.07 -54.84,45.39 -26.742,-1.97 -46.879,-23.16 -45.883,-50.03 0,-1.37 0,-3.15 0,-4.61 z m -28.887,-2.81 c 0,2.81 0,4.82 0,7.42 -0.82,40.84 30.489,74.49 71.63,77.77 43.48,4.24 82.08,-27.74 85.73,-71.45 0,-2.22 0,-4.58 0,-6.32 0,-40.78 -30.76,-75.64 -72.59,-79.5 -42.25,-3.73 -81.078,28.09 -84.77,72.08 z m 331.58,-1003.62 c 82.4,0 150.12,67.67 150.12,150.15 0,68.49 -47.62,128.07 -113.24,144.44 -0.82,6.74 -2.64,38.05 -2.64,38.05 h -75.71 c 0,0 -1.73,-34.02 -2.33,-40.79 -62.88,-19.07 -105.26,-76.38 -105.26,-141.7 0,-82.48 67.67,-150.15 149.06,-150.15 z m -2.78,-74.66 c -124.13,0 -225.58,101.87 -225.58,225.73 0,124.76 101.45,226.1 225.58,226.1 124.97,0 225.46,-101.34 225.46,-226.1 0,-124.41 -101.04,-225.73 -225.46,-225.73 z M 814.441,542.059 c 21.477,-11.7 42.532,-23.899 66.047,-35.039 l 14.082,23.339 c -32.539,16.813 -63.136,36.063 -90.507,55.071 L 714.227,453.559 C 748.27,431 779.441,412.16 814.441,391.961 l 14.493,23.277 -72.45,42.703 24.461,34.379 47.989,-28.851 13.957,22.429 c -15.411,8.473 -31.457,18.25 -48.262,28.543 z M 634.797,737.621 560.965,673.82 598.563,783.191 c -6.668,9.368 -9.708,15.899 -16.68,24.508 L 449.543,717.91 c 5.879,-8.89 13.125,-17.09 19.41,-26.281 l 79.57,55.121 -37.324,-110.191 c 6.496,-7.278 12.989,-18.43 22.149,-25.84 l 122.433,105 c -6.769,7.25 -14.972,13.703 -20.984,21.902 z m -87.5,127.117 -136.313,-79.597 c 4.922,-9.539 10.149,-20.75 16.133,-29.942 l 136.582,79.813 c -6.668,12.027 -10.39,18.449 -16.402,29.726 z M 715.73,616.762 631.68,517.07 l -26.145,22.692 86.848,96.797 c -13.703,12.742 -24.231,24.23 -37.598,36.089 l 19.387,19.422 c 33.082,-31.281 62.207,-55.511 98.719,-84.91 l -16.789,-21.39 c -13.301,10.429 -26.973,20.441 -40.372,30.992"
         style="fill:#f89a0f;fill-opacity:1;fill-rule:nonzero;stroke:none"
         transform="matrix(0.13333333,0,0,-0.13333333,0,336)" />
      <path
         id="path3"
         d="m 1998.78,915.332 c 3.33,6.219 8.1,11.297 14.3,15.379 6.09,4.008 12.94,6.129 20.51,6.301 7.48,0.136 14.48,-1.461 20.76,-4.84 6.32,-3.371 11.4,-8.25 15.42,-14.481 4,-6.242 6.1,-13.113 6.23,-20.5 0.12,-7.441 -1.5,-14.269 -4.88,-20.621 -3.36,-6.23 -8.14,-11.422 -14.43,-15.398 -6.23,-4.024 -13.15,-6.07 -20.52,-6.192 -7.42,-0.121 -14.28,1.461 -20.58,4.84 -6.3,3.371 -11.56,8.282 -15.54,14.59 -4.07,6.41 -6.09,13.211 -6.12,20.578 -0.02,7.344 1.55,14.203 4.85,20.344 m 7.17,-3.723 c -2.67,-4.98 -3.99,-10.418 -3.96,-16.308 0.01,-5.891 1.68,-11.43 4.96,-16.539 3.22,-5.09 7.39,-9.063 12.47,-11.782 5.09,-2.73 10.62,-4.039 16.58,-3.929 5.95,0.109 11.47,1.75 16.49,4.961 5.1,3.207 8.94,7.359 11.64,12.418 2.75,5.09 4.03,10.55 3.89,16.539 -0.12,5.992 -1.84,11.472 -5,16.492 -3.21,5.078 -7.35,8.937 -12.43,11.66 -5.09,2.75 -10.69,4.008 -16.73,3.848 -6.08,-0.129 -11.61,-1.77 -16.51,-5 -4.92,-3.25 -8.74,-7.399 -11.4,-12.36 m 39.62,-42.359 -38.38,20.559 4.18,7.82 c 3.92,7.312 6.14,11.351 6.68,12.223 1.54,2.488 3.28,4.207 4.79,5.218 1.54,1.032 3.37,1.551 5.55,1.621 2.2,0.09 4.29,-0.441 6.27,-1.519 2.79,-1.481 4.66,-3.703 5.65,-6.524 1.03,-2.898 0.82,-6.078 -0.44,-9.578 1.07,0.961 2.05,1.59 2.91,1.91 0.88,0.348 2.32,0.649 4.39,1 0.48,0.09 2.55,0.219 6.13,0.372 l 10.21,0.378 -5.17,-9.671 -7.98,0.16 c -5.36,0.051 -8.93,-0.321 -10.79,-1.149 -1.81,-0.789 -3.34,-2.359 -4.51,-4.55 l -1.09,-2.008 15.79,-8.442 z m -17.65,19.512 1.68,3.148 c 2.42,4.5 3.75,7.41 4,8.66 0.29,1.27 0.15,2.461 -0.43,3.578 -0.55,1.051 -1.36,1.942 -2.41,2.5 -1.1,0.602 -2.24,0.731 -3.33,0.571 -1.17,-0.168 -2.3,-0.68 -3.28,-1.629 -0.96,-0.91 -2.62,-3.629 -5.01,-8.078 l -1.68,-3.141 10.46,-5.609"
         style="fill:#f89a0f;fill-opacity:1;fill-rule:nonzero;stroke:none"
         transform="matrix(0.13333333,0,0,-0.13333333,0,336)" />
    </g>
  </g>
</svg>
